<?xml version="1.0" encoding="UTF-8"?>
<svg xmlns="http://www.w3.org/2000/svg" xmlns:xlink="http://www.w3.org/1999/xlink" width="1820px" height="900px" viewBox="0 0 24 24" version="1.1">
<g id="surface1">
<path style=" stroke:none;fill-rule:nonzero;fill:rgb(48.235294%,48.235294%,48.235294%);fill-opacity:1;" d="M 9.777344 17.230469 L 9.160156 18.019531 L 11.308594 19.707031 L 15.117188 14.675781 L 14.320312 14.074219 L 11.128906 18.292969 Z M 9.777344 17.230469 "/>
<path style=" stroke:none;fill-rule:evenodd;fill:rgb(48.235294%,48.235294%,48.235294%);fill-opacity:1;" d="M 5.707031 19.886719 C 6.140625 20.1875 6.652344 20.339844 7.1875 20.34375 L 7.1875 21.382812 C 7.1875 21.746094 7.332031 22.09375 7.585938 22.351562 C 7.84375 22.605469 8.191406 22.75 8.554688 22.75 L 15.570312 22.75 C 15.933594 22.75 16.28125 22.605469 16.535156 22.351562 C 16.792969 22.09375 16.9375 21.746094 16.9375 21.382812 L 16.9375 20.339844 C 17.425781 20.316406 17.894531 20.164062 18.292969 19.886719 C 18.929688 19.441406 19.304688 18.734375 19.355469 17.933594 C 19.402344 17.210938 19.882812 16.578125 20.59375 16.308594 C 21.363281 16.019531 21.945312 15.460938 22.191406 14.738281 C 22.4375 14.011719 22.304688 13.222656 21.855469 12.550781 C 21.449219 11.9375 21.449219 11.160156 21.855469 10.550781 C 22.304688 9.875 22.4375 9.089844 22.191406 8.363281 C 21.945312 7.640625 21.363281 7.082031 20.59375 6.792969 C 19.882812 6.523438 19.402344 5.886719 19.355469 5.164062 C 19.304688 4.367188 18.929688 3.65625 18.292969 3.214844 C 17.660156 2.769531 16.851562 2.648438 16.054688 2.847656 C 15.3125 3.03125 14.523438 2.785156 14.035156 2.222656 C 13.511719 1.609375 12.78125 1.25 12 1.25 C 11.21875 1.25 10.488281 1.605469 9.960938 2.222656 C 9.476562 2.785156 8.6875 3.03125 7.945312 2.847656 C 7.148438 2.648438 6.339844 2.769531 5.707031 3.214844 C 5.070312 3.65625 4.695312 4.367188 4.644531 5.164062 C 4.597656 5.886719 4.117188 6.523438 3.40625 6.792969 C 2.636719 7.082031 2.054688 7.640625 1.808594 8.363281 C 1.5625 9.089844 1.695312 9.875 2.144531 10.550781 C 2.550781 11.160156 2.550781 11.9375 2.144531 12.550781 C 1.695312 13.222656 1.5625 14.011719 1.808594 14.738281 C 2.054688 15.460938 2.636719 16.019531 3.40625 16.308594 C 4.117188 16.578125 4.597656 17.210938 4.644531 17.933594 C 4.695312 18.734375 5.070312 19.441406 5.707031 19.886719 Z M 17.863281 19.273438 C 17.59375 19.460938 17.277344 19.566406 16.9375 19.589844 L 16.9375 12.75 C 18.355469 12.75 19.320312 12.75 19.339844 12.75 C 19.761719 12.753906 20.125 12.460938 20.214844 12.050781 C 20.304688 11.640625 20.09375 11.222656 19.710938 11.050781 C 19.015625 10.742188 18.183594 10.371094 17.246094 9.960938 L 17.105469 9.898438 C 16.039062 9.433594 14.894531 8.933594 13.753906 8.4375 C 13.351562 8.265625 12.980469 8.105469 12.648438 7.960938 L 12.503906 7.898438 C 12.539062 7.753906 12.597656 7.660156 12.675781 7.589844 C 12.722656 7.550781 12.941406 7.414062 12.910156 7.433594 C 13.296875 7.167969 13.53125 6.726562 13.53125 6.25 C 13.53125 5.457031 12.886719 4.8125 12.09375 4.8125 C 11.300781 4.8125 10.65625 5.457031 10.65625 6.25 L 11.40625 6.25 C 11.40625 5.871094 11.714844 5.5625 12.09375 5.5625 C 12.472656 5.5625 12.78125 5.871094 12.78125 6.25 C 12.78125 6.476562 12.671875 6.683594 12.488281 6.8125 C 12.546875 6.773438 12.277344 6.941406 12.183594 7.027344 C 11.957031 7.226562 11.808594 7.496094 11.746094 7.867188 L 11.527344 7.96875 C 11.214844 8.113281 10.867188 8.273438 10.492188 8.449219 C 9.417969 8.945312 8.34375 9.445312 7.339844 9.90625 L 7.3125 9.921875 C 6.371094 10.355469 5.542969 10.738281 4.851562 11.054688 C 4.472656 11.230469 4.265625 11.644531 4.355469 12.050781 C 4.441406 12.457031 4.804688 12.757812 5.222656 12.75 C 5.234375 12.75 6.007812 12.75 7.1875 12.75 L 7.1875 14.75 L 7.9375 14.75 L 7.9375 12 L 16.1875 12 L 16.1875 21.382812 C 16.1875 21.546875 16.121094 21.703125 16.007812 21.820312 C 15.890625 21.933594 15.734375 22 15.570312 22 L 8.554688 22 C 8.390625 22 8.234375 21.933594 8.117188 21.820312 C 8.003906 21.703125 7.9375 21.546875 7.9375 21.382812 L 7.9375 16.25 L 7.1875 16.25 L 7.1875 19.59375 C 6.800781 19.589844 6.4375 19.484375 6.136719 19.273438 C 5.691406 18.960938 5.429688 18.464844 5.394531 17.886719 C 5.328125 16.867188 4.65625 15.976562 3.671875 15.605469 C 3.101562 15.390625 2.6875 14.996094 2.519531 14.496094 C 2.351562 14 2.441406 13.453125 2.769531 12.964844 C 3.339844 12.101562 3.339844 10.996094 2.769531 10.136719 C 2.441406 9.644531 2.351562 9.097656 2.519531 8.601562 C 2.6875 8.105469 3.101562 7.707031 3.671875 7.496094 C 4.65625 7.121094 5.328125 6.234375 5.394531 5.214844 C 5.429688 4.632812 5.691406 4.136719 6.136719 3.828125 C 6.585938 3.515625 7.167969 3.425781 7.765625 3.578125 C 8.78125 3.828125 9.859375 3.492188 10.53125 2.710938 C 10.917969 2.257812 11.445312 2 12 2 C 12.554688 2 13.082031 2.257812 13.464844 2.710938 C 14.140625 3.492188 15.21875 3.828125 16.234375 3.574219 C 16.832031 3.425781 17.414062 3.515625 17.863281 3.828125 C 18.308594 4.136719 18.570312 4.632812 18.605469 5.210938 C 18.671875 6.234375 19.34375 7.121094 20.328125 7.496094 C 20.898438 7.707031 21.3125 8.105469 21.480469 8.601562 C 21.648438 9.097656 21.558594 9.644531 21.230469 10.132812 C 20.660156 10.996094 20.660156 12.101562 21.230469 12.964844 C 21.558594 13.453125 21.648438 14 21.480469 14.496094 C 21.3125 14.996094 20.898438 15.390625 20.328125 15.605469 C 19.34375 15.976562 18.671875 16.867188 18.605469 17.886719 C 18.570312 18.464844 18.308594 18.960938 17.863281 19.273438 Z M 19.347656 12 C 19.324219 12 18.355469 12 16.9375 12 L 16.9375 11.25 L 7.1875 11.25 L 7.1875 12 C 6 12 5.222656 12 5.214844 12 C 5.15625 12 5.101562 11.957031 5.085938 11.890625 C 5.074219 11.828125 5.105469 11.765625 5.164062 11.738281 C 5.855469 11.417969 6.6875 11.035156 7.625 10.601562 L 7.652344 10.589844 C 8.65625 10.125 9.734375 9.625 10.808594 9.128906 C 11.089844 8.996094 11.359375 8.871094 11.609375 8.757812 C 11.691406 8.71875 11.769531 8.683594 11.84375 8.648438 L 12.085938 8.535156 L 12.351562 8.648438 C 12.683594 8.792969 13.054688 8.953125 13.453125 9.128906 C 14.597656 9.621094 15.738281 10.121094 16.804688 10.585938 L 16.945312 10.648438 C 17.882812 11.058594 18.710938 11.425781 19.402344 11.738281 C 19.464844 11.761719 19.496094 11.828125 19.480469 11.890625 C 19.46875 11.957031 19.410156 12 19.347656 12 Z M 19.347656 12 "/>
</g>
</svg>
