<?xml version="1.0" encoding="UTF-8"?>
<svg xmlns="http://www.w3.org/2000/svg" xmlns:xlink="http://www.w3.org/1999/xlink" width="1820px" height="900px" viewBox="0 0 24 24" version="1.1">
<g id="surface1">
<path style=" stroke:none;fill-rule:evenodd;fill:rgb(48.235294%,48.235294%,48.235294%);fill-opacity:1;" d="M 14.484375 3.167969 C 18.511719 3.167969 21.871094 6.027344 22.648438 9.824219 L 18.671875 8.707031 L 18.816406 9.265625 C 18.824219 9.296875 18.832031 9.328125 18.835938 9.359375 L 17.609375 8.800781 L 17.332031 9.40625 L 18.875 10.109375 C 18.746094 11.273438 17.753906 12.183594 16.554688 12.183594 C 15.386719 12.183594 14.417969 11.324219 14.25 10.203125 L 17 8.949219 L 17 8.734375 C 17 8.691406 17.023438 8.636719 17.078125 8.554688 C 17.109375 8.511719 17.148438 8.464844 17.203125 8.398438 C 17.207031 8.390625 17.230469 8.371094 17.253906 8.339844 C 17.292969 8.296875 17.34375 8.234375 17.367188 8.210938 C 17.714844 7.796875 17.890625 7.445312 17.890625 6.960938 C 17.890625 6.285156 17.339844 5.738281 16.667969 5.738281 C 15.992188 5.738281 15.445312 6.285156 15.445312 6.960938 L 15.445312 7.292969 L 16.109375 7.292969 L 16.109375 6.960938 C 16.109375 6.65625 16.359375 6.40625 16.667969 6.40625 C 16.972656 6.40625 17.222656 6.65625 17.222656 6.960938 C 17.222656 7.257812 17.113281 7.472656 16.855469 7.78125 C 16.835938 7.800781 16.789062 7.859375 16.75 7.90625 C 16.722656 7.933594 16.703125 7.957031 16.695312 7.96875 C 16.628906 8.046875 16.578125 8.109375 16.53125 8.171875 C 16.457031 8.285156 16.398438 8.394531 16.367188 8.507812 L 14.253906 9.46875 C 14.265625 9.402344 14.277344 9.332031 14.296875 9.265625 L 14.441406 8.707031 L 9.109375 10.203125 L 9.109375 15.152344 L 12.222656 14.484375 L 12.222656 21.609375 L 20.890625 21.609375 L 20.890625 17.820312 C 20.917969 17.792969 20.949219 17.761719 20.976562 17.730469 C 21.769531 16.90625 22.394531 15.945312 22.820312 14.898438 L 24 15.152344 L 24 10.203125 L 23.363281 10.023438 C 22.660156 5.757812 18.949219 2.5 14.484375 2.5 C 12.550781 2.5 10.707031 3.113281 9.175781 4.234375 L 9.570312 4.769531 C 10.988281 3.734375 12.695312 3.167969 14.484375 3.167969 Z M 19.550781 9.6875 C 19.554688 9.742188 19.554688 9.796875 19.554688 9.851562 C 19.554688 11.503906 18.210938 12.851562 16.554688 12.851562 C 14.898438 12.851562 13.554688 11.503906 13.554688 9.851562 C 13.554688 9.78125 13.558594 9.710938 13.5625 9.644531 L 9.777344 10.707031 L 9.777344 14.328125 L 12.890625 13.660156 L 12.890625 20.945312 L 20.222656 20.945312 L 20.222656 13.660156 L 23.332031 14.328125 L 23.332031 10.707031 L 19.546875 9.644531 L 19.550781 9.65625 Z M 22.15625 14.757812 C 21.839844 15.503906 21.414062 16.203125 20.890625 16.832031 L 20.890625 14.484375 Z M 22.15625 14.757812 "/>
<path style=" stroke:none;fill-rule:nonzero;fill:rgb(48.235294%,48.235294%,48.235294%);fill-opacity:1;" d="M 8.324219 4.941406 C 6.695312 6.46875 5.691406 8.542969 5.511719 10.785156 L 4.527344 9.515625 L 4 9.925781 L 5.820312 12.265625 L 7.636719 9.925781 L 7.109375 9.515625 L 6.191406 10.703125 C 6.382812 8.675781 7.308594 6.8125 8.78125 5.425781 Z M 8.324219 4.941406 "/>
<path style=" stroke:none;fill-rule:evenodd;fill:rgb(48.235294%,48.235294%,48.235294%);fill-opacity:1;" d="M 3.199219 18.710938 L 3.199219 13.832031 L 3.121094 13.832031 L 0 14.988281 L 0 16.089844 L 1.941406 15.375 L 1.941406 21.417969 L 3.199219 21.417969 L 3.199219 19.75 L 6.332031 19.75 L 6.332031 21.445312 L 7.578125 21.445312 L 7.578125 19.75 L 8.53125 19.75 L 8.53125 18.742188 L 7.578125 18.742188 L 7.578125 13.859375 L 6.296875 13.859375 Z M 6.1875 15.796875 L 4.292969 18.742188 L 6.332031 18.742188 L 6.332031 15.527344 Z M 6.1875 15.796875 "/>
</g>
</svg>
