<?xml version="1.0" encoding="UTF-8"?>
<svg xmlns="http://www.w3.org/2000/svg" xmlns:xlink="http://www.w3.org/1999/xlink" width="1820px" height="900px" viewBox="0 0 24 24" version="1.1">
<g id="surface1">
<path style=" stroke:none;fill-rule:nonzero;fill:rgb(48.235294%,48.235294%,48.235294%);fill-opacity:1;" d="M 10.101562 13.625 L 14.148438 13.625 L 14.148438 17.273438 L 10.101562 17.273438 Z M 10.101562 13.625 "/>
<path style=" stroke:none;fill-rule:nonzero;fill:rgb(48.235294%,48.235294%,48.235294%);fill-opacity:1;" d="M 8.5 21.5 L 10.5 21.5 L 10.5 20.75 L 8.5 20.75 Z M 8.5 21.5 "/>
<path style=" stroke:none;fill-rule:nonzero;fill:rgb(48.235294%,48.235294%,48.235294%);fill-opacity:1;" d="M 11.503906 20.25 L 8.503906 20.25 L 8.503906 19.5 L 11.503906 19.5 Z M 11.503906 20.25 "/>
<path style=" stroke:none;fill-rule:evenodd;fill:rgb(48.235294%,48.235294%,48.235294%);fill-opacity:1;" d="M 1.628906 10.5 L 2.390625 10.5 C 2.398438 10.4375 2.410156 10.375 2.425781 10.3125 L 6.5 13.53125 L 6.5 23 L 17.5 23 L 17.5 13.53125 L 21.574219 10.3125 C 21.589844 10.375 21.601562 10.4375 21.609375 10.5 L 22.371094 10.5 C 22.375 10.417969 22.375 10.332031 22.375 10.25 C 22.375 5.132812 17.71875 1 12 1 C 6.28125 1 1.625 5.132812 1.625 10.25 C 1.625 10.332031 1.625 10.417969 1.628906 10.5 Z M 14.125 17.25 L 14.125 13.625 L 16.75 13.625 L 16.75 22.25 L 7.25 22.25 L 7.25 13.625 L 10.125 13.625 L 10.125 17.25 Z M 9.058594 10.5 L 8.273438 10.5 C 8.121094 9.320312 6.871094 8.375 5.332031 8.375 C 4.214844 8.375 3.246094 8.875 2.742188 9.609375 L 6.878906 12.875 L 10.546875 12.875 L 9.105469 10.269531 C 9.082031 10.34375 9.070312 10.421875 9.058594 10.5 Z M 12 8.375 C 13.050781 8.375 13.960938 8.8125 14.488281 9.457031 L 12.59375 12.875 L 11.40625 12.875 L 9.515625 9.464844 C 10.039062 8.8125 10.953125 8.375 12 8.375 Z M 21.257812 9.609375 C 20.753906 8.875 19.785156 8.375 18.667969 8.375 C 17.125 8.375 15.871094 9.324219 15.722656 10.5 L 14.945312 10.5 C 14.933594 10.417969 14.917969 10.339844 14.898438 10.261719 L 13.453125 12.875 L 17.121094 12.875 Z M 9.253906 7.546875 C 9.554688 5.121094 10.457031 3.457031 12.472656 1.761719 C 16.976562 1.953125 20.664062 4.886719 21.464844 8.695312 C 20.78125 8.035156 19.773438 7.625 18.667969 7.625 C 17.214844 7.625 15.941406 8.328125 15.335938 9.367188 C 14.730469 8.328125 13.457031 7.625 12 7.625 C 10.542969 7.625 9.273438 8.332031 8.667969 9.375 C 8.0625 8.332031 6.789062 7.625 5.332031 7.625 C 4.226562 7.625 3.21875 8.035156 2.535156 8.695312 C 3.324219 4.9375 6.917969 2.035156 11.335938 1.769531 C 9.625 3.40625 8.800781 5.121094 8.511719 7.453125 Z M 9.253906 7.546875 "/>
</g>
</svg>
